<svg width="1180" height="181" viewBox="0 0 1180 181" fill="none" xmlns="http://www.w3.org/2000/svg">
<rect x="1.5" y="1.5" width="195.88" height="178" rx="28.5" stroke="url(#paint0_linear_37_59)" stroke-width="3"/>
<rect x="246.5" y="1.5" width="195.88" height="178" rx="28.5" stroke="url(#paint1_linear_37_59)" stroke-width="3"/>
<path d="M325.886 109.99H328.106V127.9H333.626V130H325.886V109.99ZM338.858 109.99V118.12H349.118V109.99H351.338V130H349.118V120.22H338.858V130H336.638V109.99H338.858ZM366.281 112.09H361.421V130H359.201V112.09H354.341V109.99H366.281V112.09Z" fill="#C7E5F6"/>
<path d="M311.209 148.5L309.439 149.43C309.139 148.71 308.509 148.17 307.699 148.17C306.919 148.17 306.199 148.62 306.199 149.58C306.199 150.48 306.799 150.75 308.209 151.35C310.009 152.1 310.849 152.67 311.329 153.27C311.869 153.93 311.989 154.59 311.989 155.28C311.989 157.89 310.099 159.36 307.699 159.36C307.189 159.36 304.399 159.3 303.349 156.18L305.209 155.4C305.449 156.06 306.169 157.44 307.729 157.44C309.139 157.44 309.769 156.39 309.769 155.46C309.769 154.29 308.929 153.9 307.759 153.39C306.259 152.73 305.299 152.25 304.729 151.56C304.249 150.96 304.159 150.36 304.159 149.73C304.159 147.54 305.689 146.25 307.789 146.25C308.449 146.25 310.219 146.37 311.209 148.5ZM324.095 154.83L325.895 155.82C325.535 156.51 324.995 157.26 324.365 157.83C323.225 158.85 321.815 159.36 320.225 159.36C317.225 159.36 314.075 157.47 314.075 152.85C314.075 149.13 316.355 146.25 320.105 146.25C322.535 146.25 324.065 147.45 324.815 148.53C325.595 149.64 326.045 151.56 325.985 153.21H316.295C316.325 155.79 318.095 157.44 320.255 157.44C321.275 157.44 322.085 157.14 322.805 156.54C323.375 156.06 323.825 155.43 324.095 154.83ZM316.445 151.41H323.765C323.405 149.46 321.935 148.17 320.105 148.17C318.275 148.17 316.775 149.55 316.445 151.41ZM329.299 159V146.55H331.459V147.99C331.849 147.48 332.959 146.25 335.029 146.25C336.499 146.25 337.849 146.85 338.599 147.96C339.229 148.89 339.319 149.91 339.319 151.29V159H337.159V151.35C337.159 150.6 337.099 149.73 336.589 149.07C336.169 148.53 335.509 148.17 334.549 148.17C333.799 148.17 332.989 148.38 332.359 149.13C331.519 150.12 331.459 151.59 331.459 152.49V159H329.299ZM350.291 148.5L348.521 149.43C348.221 148.71 347.591 148.17 346.781 148.17C346.001 148.17 345.281 148.62 345.281 149.58C345.281 150.48 345.881 150.75 347.291 151.35C349.091 152.1 349.931 152.67 350.411 153.27C350.951 153.93 351.071 154.59 351.071 155.28C351.071 157.89 349.181 159.36 346.781 159.36C346.271 159.36 343.481 159.3 342.431 156.18L344.291 155.4C344.531 156.06 345.251 157.44 346.811 157.44C348.221 157.44 348.851 156.39 348.851 155.46C348.851 154.29 348.011 153.9 346.841 153.39C345.341 152.73 344.381 152.25 343.811 151.56C343.331 150.96 343.241 150.36 343.241 149.73C343.241 147.54 344.771 146.25 346.871 146.25C347.531 146.25 349.301 146.37 350.291 148.5ZM359.757 159.36C355.977 159.36 353.157 156.6 353.157 152.82C353.157 149.04 355.947 146.25 359.757 146.25C363.567 146.25 366.357 149.04 366.357 152.82C366.357 156.6 363.537 159.36 359.757 159.36ZM359.757 148.17C357.477 148.17 355.377 149.79 355.377 152.82C355.377 155.88 357.537 157.44 359.757 157.44C362.007 157.44 364.137 155.85 364.137 152.82C364.137 149.76 362.037 148.17 359.757 148.17ZM369.67 159V146.55H371.83V147.9C372.04 147.57 372.97 146.25 374.65 146.25C375.31 146.25 376.03 146.49 376.57 146.76L375.55 148.71C375.07 148.38 374.62 148.29 374.29 148.29C373.42 148.29 372.88 148.65 372.55 149.07C372.19 149.55 371.83 150.39 371.83 152.43V159H369.67ZM385.125 148.5L383.355 149.43C383.055 148.71 382.425 148.17 381.615 148.17C380.835 148.17 380.115 148.62 380.115 149.58C380.115 150.48 380.715 150.75 382.125 151.35C383.925 152.1 384.765 152.67 385.245 153.27C385.785 153.93 385.905 154.59 385.905 155.28C385.905 157.89 384.015 159.36 381.615 159.36C381.105 159.36 378.315 159.3 377.265 156.18L379.125 155.4C379.365 156.06 380.085 157.44 381.645 157.44C383.055 157.44 383.685 156.39 383.685 155.46C383.685 154.29 382.845 153.9 381.675 153.39C380.175 152.73 379.215 152.25 378.645 151.56C378.165 150.96 378.075 150.36 378.075 149.73C378.075 147.54 379.605 146.25 381.705 146.25C382.365 146.25 384.135 146.37 385.125 148.5Z" fill="#C7E5F6"/>
<g filter="url(#filter0_d_37_59)">
<mask id="path-5-outside-1_37_59" maskUnits="userSpaceOnUse" x="327" y="26" width="39" height="51" fill="black">
<rect fill="white" x="327" y="26" width="39" height="51"/>
<path d="M328.5 72.11L351.74 33.89H328.78V27.31H363.5L334.1 75.61L328.5 72.11Z"/>
</mask>
<path d="M328.5 72.11L351.74 33.89H328.78V27.31H363.5L334.1 75.61L328.5 72.11Z" fill="#C7E5F6"/>
<path d="M328.5 72.11L327.646 71.5905L327.132 72.4345L327.97 72.958L328.5 72.11ZM351.74 33.89L352.594 34.4095L353.518 32.89H351.74V33.89ZM328.78 33.89H327.78V34.89H328.78V33.89ZM328.78 27.31V26.31H327.78V27.31H328.78ZM363.5 27.31L364.354 27.8299L365.279 26.31H363.5V27.31ZM334.1 75.61L333.57 76.458L334.428 76.9943L334.954 76.1299L334.1 75.61ZM328.5 72.11L329.354 72.6295L352.594 34.4095L351.74 33.89L350.886 33.3704L327.646 71.5905L328.5 72.11ZM351.74 33.89V32.89H328.78V33.89V34.89H351.74V33.89ZM328.78 33.89H329.78V27.31H328.78H327.78V33.89H328.78ZM328.78 27.31V28.31H363.5V27.31V26.31H328.78V27.31ZM363.5 27.31L362.646 26.79L333.246 75.0901L334.1 75.61L334.954 76.1299L364.354 27.8299L363.5 27.31ZM334.1 75.61L334.63 74.762L329.03 71.262L328.5 72.11L327.97 72.958L333.57 76.458L334.1 75.61Z" fill="url(#paint2_linear_37_59)" mask="url(#path-5-outside-1_37_59)"/>
</g>
<path d="M536.129 117.55H538.289V130H536.129V117.55ZM535.679 112.84C535.679 112 536.369 111.31 537.209 111.31C538.049 111.31 538.739 112 538.739 112.84C538.739 113.68 538.049 114.37 537.209 114.37C536.369 114.37 535.679 113.68 535.679 112.84ZM542.369 130V117.55H544.529V118.99C544.919 118.48 546.029 117.25 548.099 117.25C549.569 117.25 550.919 117.85 551.669 118.96C552.299 119.89 552.389 120.91 552.389 122.29V130H550.229V122.35C550.229 121.6 550.169 120.73 549.659 120.07C549.239 119.53 548.579 119.17 547.619 119.17C546.869 119.17 546.059 119.38 545.429 120.13C544.589 121.12 544.529 122.59 544.529 123.49V130H542.369ZM566.001 119.32V108.13H568.161V130H566.001V128.26C565.281 129.19 563.931 130.36 561.741 130.36C558.591 130.36 555.681 128.14 555.681 123.76C555.681 119.47 558.561 117.25 561.741 117.25C564.141 117.25 565.431 118.57 566.001 119.32ZM561.981 119.17C559.851 119.17 557.901 120.73 557.901 123.76C557.901 126.43 559.401 128.44 561.981 128.44C564.621 128.44 566.121 126.25 566.121 123.79C566.121 120.58 563.901 119.17 561.981 119.17ZM571.959 117.55H574.119V130H571.959V117.55ZM571.509 112.84C571.509 112 572.199 111.31 573.039 111.31C573.879 111.31 574.569 112 574.569 112.84C574.569 113.68 573.879 114.37 573.039 114.37C572.199 114.37 571.509 113.68 571.509 112.84ZM576.399 117.55H578.799L582.519 125.95L586.239 117.55H588.639L582.519 130.81L576.399 117.55ZM590.914 117.55H593.074V130H590.914V117.55ZM590.464 112.84C590.464 112 591.154 111.31 591.994 111.31C592.834 111.31 593.524 112 593.524 112.84C593.524 113.68 592.834 114.37 591.994 114.37C591.154 114.37 590.464 113.68 590.464 112.84ZM606.694 119.32V108.13H608.854V130H606.694V128.26C605.974 129.19 604.624 130.36 602.434 130.36C599.284 130.36 596.374 128.14 596.374 123.76C596.374 119.47 599.254 117.25 602.434 117.25C604.834 117.25 606.124 118.57 606.694 119.32ZM602.674 119.17C600.544 119.17 598.594 120.73 598.594 123.76C598.594 126.43 600.094 128.44 602.674 128.44C605.314 128.44 606.814 126.25 606.814 123.79C606.814 120.58 604.594 119.17 602.674 119.17ZM615.105 117.55V124.81C615.105 125.68 615.105 126.7 615.705 127.48C616.035 127.9 616.695 128.44 617.895 128.44C619.095 128.44 619.755 127.9 620.085 127.48C620.685 126.7 620.685 125.68 620.685 124.81V117.55H622.845V125.05C622.845 126.58 622.695 127.72 621.705 128.8C620.595 129.97 619.125 130.36 617.895 130.36C616.665 130.36 615.195 129.97 614.085 128.8C613.095 127.72 612.945 126.58 612.945 125.05V117.55H615.105ZM636.46 119.32V117.55H638.62V130H636.46V128.26C635.74 129.19 634.39 130.36 632.2 130.36C629.05 130.36 626.14 128.14 626.14 123.76C626.14 119.47 629.02 117.25 632.2 117.25C634.6 117.25 635.89 118.57 636.46 119.32ZM632.44 119.17C630.31 119.17 628.36 120.73 628.36 123.76C628.36 126.43 629.86 128.44 632.44 128.44C635.08 128.44 636.58 126.25 636.58 123.79C636.58 120.58 634.36 119.17 632.44 119.17ZM642.711 108.13H644.871V130H642.711V108.13Z" fill="#C7E5F6"/>
<path d="M510.082 159V146.55H512.242V147.87C512.932 146.85 514.012 146.25 515.332 146.25C517.582 146.25 518.482 147.84 518.722 148.26C519.922 146.37 521.632 146.25 522.472 146.25C526.162 146.25 526.522 149.34 526.522 151.11V159H524.362V151.44C524.362 150.03 524.182 148.17 522.142 148.17C519.652 148.17 519.382 150.57 519.382 152.07V159H517.222V151.62C517.222 150.75 517.252 148.17 514.972 148.17C512.512 148.17 512.242 150.72 512.242 152.22V159H510.082ZM539.859 154.83L541.659 155.82C541.299 156.51 540.759 157.26 540.129 157.83C538.989 158.85 537.579 159.36 535.989 159.36C532.989 159.36 529.839 157.47 529.839 152.85C529.839 149.13 532.119 146.25 535.869 146.25C538.299 146.25 539.829 147.45 540.579 148.53C541.359 149.64 541.809 151.56 541.749 153.21H532.059C532.089 155.79 533.859 157.44 536.019 157.44C537.039 157.44 537.849 157.14 538.569 156.54C539.139 156.06 539.589 155.43 539.859 154.83ZM532.209 151.41H539.529C539.169 149.46 537.699 148.17 535.869 148.17C534.039 148.17 532.539 149.55 532.209 151.41ZM554.602 148.32V146.55H556.762V159H554.602V157.26C553.882 158.19 552.532 159.36 550.342 159.36C547.192 159.36 544.282 157.14 544.282 152.76C544.282 148.47 547.162 146.25 550.342 146.25C552.742 146.25 554.032 147.57 554.602 148.32ZM550.582 148.17C548.452 148.17 546.502 149.73 546.502 152.76C546.502 155.43 548.002 157.44 550.582 157.44C553.222 157.44 554.722 155.25 554.722 152.79C554.722 149.58 552.502 148.17 550.582 148.17ZM567.753 148.5L565.983 149.43C565.683 148.71 565.053 148.17 564.243 148.17C563.463 148.17 562.743 148.62 562.743 149.58C562.743 150.48 563.343 150.75 564.753 151.35C566.553 152.1 567.393 152.67 567.873 153.27C568.413 153.93 568.533 154.59 568.533 155.28C568.533 157.89 566.643 159.36 564.243 159.36C563.733 159.36 560.943 159.3 559.893 156.18L561.753 155.4C561.993 156.06 562.713 157.44 564.273 157.44C565.683 157.44 566.313 156.39 566.313 155.46C566.313 154.29 565.473 153.9 564.303 153.39C562.803 152.73 561.843 152.25 561.273 151.56C560.793 150.96 560.703 150.36 560.703 149.73C560.703 147.54 562.233 146.25 564.333 146.25C564.993 146.25 566.763 146.37 567.753 148.5ZM573.56 146.55V153.81C573.56 154.68 573.56 155.7 574.16 156.48C574.49 156.9 575.15 157.44 576.35 157.44C577.55 157.44 578.21 156.9 578.54 156.48C579.14 155.7 579.14 154.68 579.14 153.81V146.55H581.3V154.05C581.3 155.58 581.15 156.72 580.16 157.8C579.05 158.97 577.58 159.36 576.35 159.36C575.12 159.36 573.65 158.97 572.54 157.8C571.55 156.72 571.4 155.58 571.4 154.05V146.55H573.56ZM585.375 159V146.55H587.535V147.9C587.745 147.57 588.675 146.25 590.355 146.25C591.015 146.25 591.735 146.49 592.275 146.76L591.255 148.71C590.775 148.38 590.325 148.29 589.995 148.29C589.125 148.29 588.585 148.65 588.255 149.07C587.895 149.55 587.535 150.39 587.535 152.43V159H585.375ZM602.759 154.83L604.559 155.82C604.199 156.51 603.659 157.26 603.029 157.83C601.889 158.85 600.479 159.36 598.889 159.36C595.889 159.36 592.739 157.47 592.739 152.85C592.739 149.13 595.019 146.25 598.769 146.25C601.199 146.25 602.729 147.45 603.479 148.53C604.259 149.64 604.709 151.56 604.649 153.21H594.959C594.989 155.79 596.759 157.44 598.919 157.44C599.939 157.44 600.749 157.14 601.469 156.54C602.039 156.06 602.489 155.43 602.759 154.83ZM595.109 151.41H602.429C602.069 149.46 600.599 148.17 598.769 148.17C596.939 148.17 595.439 149.55 595.109 151.41ZM607.963 159V146.55H610.123V147.87C610.813 146.85 611.893 146.25 613.213 146.25C615.463 146.25 616.363 147.84 616.603 148.26C617.803 146.37 619.513 146.25 620.353 146.25C624.043 146.25 624.403 149.34 624.403 151.11V159H622.243V151.44C622.243 150.03 622.063 148.17 620.023 148.17C617.533 148.17 617.263 150.57 617.263 152.07V159H615.103V151.62C615.103 150.75 615.133 148.17 612.853 148.17C610.393 148.17 610.123 150.72 610.123 152.22V159H607.963ZM637.74 154.83L639.54 155.82C639.18 156.51 638.64 157.26 638.01 157.83C636.87 158.85 635.46 159.36 633.87 159.36C630.87 159.36 627.72 157.47 627.72 152.85C627.72 149.13 630 146.25 633.75 146.25C636.18 146.25 637.71 147.45 638.46 148.53C639.24 149.64 639.69 151.56 639.63 153.21H629.94C629.97 155.79 631.74 157.44 633.9 157.44C634.92 157.44 635.73 157.14 636.45 156.54C637.02 156.06 637.47 155.43 637.74 154.83ZM630.09 151.41H637.41C637.05 149.46 635.58 148.17 633.75 148.17C631.92 148.17 630.42 149.55 630.09 151.41ZM642.943 159V146.55H645.103V147.99C645.493 147.48 646.603 146.25 648.673 146.25C650.143 146.25 651.493 146.85 652.243 147.96C652.873 148.89 652.963 149.91 652.963 151.29V159H650.803V151.35C650.803 150.6 650.743 149.73 650.233 149.07C649.813 148.53 649.153 148.17 648.193 148.17C647.443 148.17 646.633 148.38 646.003 149.13C645.163 150.12 645.103 151.59 645.103 152.49V159H642.943ZM661.415 148.53H659.255V159H657.095V148.53H655.775V146.55H657.095V142.05H659.255V146.55H661.415V148.53ZM670.351 148.5L668.581 149.43C668.281 148.71 667.651 148.17 666.841 148.17C666.061 148.17 665.341 148.62 665.341 149.58C665.341 150.48 665.941 150.75 667.351 151.35C669.151 152.1 669.991 152.67 670.471 153.27C671.011 153.93 671.131 154.59 671.131 155.28C671.131 157.89 669.241 159.36 666.841 159.36C666.331 159.36 663.541 159.3 662.491 156.18L664.351 155.4C664.591 156.06 665.311 157.44 666.871 157.44C668.281 157.44 668.911 156.39 668.911 155.46C668.911 154.29 668.071 153.9 666.901 153.39C665.401 152.73 664.441 152.25 663.871 151.56C663.391 150.96 663.301 150.36 663.301 149.73C663.301 147.54 664.831 146.25 666.931 146.25C667.591 146.25 669.361 146.37 670.351 148.5Z" fill="#C7E5F6"/>
<g filter="url(#filter1_d_37_59)">
<mask id="path-9-outside-2_37_59" maskUnits="userSpaceOnUse" x="530" y="21" width="127" height="59" fill="black">
<rect fill="white" x="530" y="21" width="127" height="59"/>
<path d="M540.5 75V34.89H532.38L536.3 28.31H547.64V75H540.5ZM574.265 75H566.985L576.785 24.81L593.025 61.07L609.405 24.81L618.225 75H610.945L606.185 46.86L592.605 77.17L579.165 46.79L574.265 75ZM624.705 54.63V48.33H636.605V36.43H643.185V48.33H655.085V54.63H643.185V66.53H636.605V54.63H624.705Z"/>
</mask>
<path d="M540.5 75V34.89H532.38L536.3 28.31H547.64V75H540.5ZM574.265 75H566.985L576.785 24.81L593.025 61.07L609.405 24.81L618.225 75H610.945L606.185 46.86L592.605 77.17L579.165 46.79L574.265 75ZM624.705 54.63V48.33H636.605V36.43H643.185V48.33H655.085V54.63H643.185V66.53H636.605V54.63H624.705Z" fill="#C7E5F6"/>
<path d="M540.5 75H539.5V76H540.5V75ZM540.5 34.89H541.5V33.89H540.5V34.89ZM532.38 34.89L531.521 34.3782L530.62 35.89H532.38V34.89ZM536.3 28.31V27.31H535.732L535.441 27.7982L536.3 28.31ZM547.64 28.31H548.64V27.31H547.64V28.31ZM547.64 75V76H548.64V75H547.64ZM540.5 75H541.5V34.89H540.5H539.5V75H540.5ZM540.5 34.89V33.89H532.38V34.89V35.89H540.5V34.89ZM532.38 34.89L533.239 35.4018L537.159 28.8218L536.3 28.31L535.441 27.7982L531.521 34.3782L532.38 34.89ZM536.3 28.31V29.31H547.64V28.31V27.31H536.3V28.31ZM547.64 28.31H546.64V75H547.64H548.64V28.31H547.64ZM547.64 75V74H540.5V75V76H547.64V75ZM574.265 75V76H575.106L575.25 75.1711L574.265 75ZM566.985 75L566.004 74.8084L565.771 76H566.985V75ZM576.785 24.81L577.698 24.4012L576.408 21.522L575.804 24.6184L576.785 24.81ZM593.025 61.07L592.113 61.4788L593.021 63.5077L593.936 61.4817L593.025 61.07ZM609.405 24.81L610.39 24.6369L609.829 21.4431L608.494 24.3983L609.405 24.81ZM618.225 75V76H619.416L619.21 74.8269L618.225 75ZM610.945 75L609.959 75.1668L610.1 76H610.945V75ZM606.185 46.86L607.171 46.6932L606.621 43.4413L605.273 46.4511L606.185 46.86ZM592.605 77.17L591.691 77.5746L592.599 79.6287L593.518 77.5789L592.605 77.17ZM579.165 46.79L580.08 46.3854L578.745 43.3677L578.18 46.6189L579.165 46.79ZM574.265 75V74H566.985V75V76H574.265V75ZM566.985 75L567.967 75.1916L577.767 25.0016L576.785 24.81L575.804 24.6184L566.004 74.8084L566.985 75ZM576.785 24.81L575.873 25.2188L592.113 61.4788L593.025 61.07L593.938 60.6612L577.698 24.4012L576.785 24.81ZM593.025 61.07L593.936 61.4817L610.316 25.2217L609.405 24.81L608.494 24.3983L592.114 60.6583L593.025 61.07ZM609.405 24.81L608.42 24.9831L617.24 75.1731L618.225 75L619.21 74.8269L610.39 24.6369L609.405 24.81ZM618.225 75V74H610.945V75V76H618.225V75ZM610.945 75L611.931 74.8332L607.171 46.6932L606.185 46.86L605.199 47.0268L609.959 75.1668L610.945 75ZM606.185 46.86L605.273 46.4511L591.693 76.7611L592.605 77.17L593.518 77.5789L607.098 47.2689L606.185 46.86ZM592.605 77.17L593.52 76.7654L580.08 46.3854L579.165 46.79L578.251 47.1946L591.691 77.5746L592.605 77.17ZM579.165 46.79L578.18 46.6189L573.28 74.8289L574.265 75L575.25 75.1711L580.15 46.9611L579.165 46.79ZM624.705 54.63H623.705V55.63H624.705V54.63ZM624.705 48.33V47.33H623.705V48.33H624.705ZM636.605 48.33V49.33H637.605V48.33H636.605ZM636.605 36.43V35.43H635.605V36.43H636.605ZM643.185 36.43H644.185V35.43H643.185V36.43ZM643.185 48.33H642.185V49.33H643.185V48.33ZM655.085 48.33H656.085V47.33H655.085V48.33ZM655.085 54.63V55.63H656.085V54.63H655.085ZM643.185 54.63V53.63H642.185V54.63H643.185ZM643.185 66.53V67.53H644.185V66.53H643.185ZM636.605 66.53H635.605V67.53H636.605V66.53ZM636.605 54.63H637.605V53.63H636.605V54.63ZM624.705 54.63H625.705V48.33H624.705H623.705V54.63H624.705ZM624.705 48.33V49.33H636.605V48.33V47.33H624.705V48.33ZM636.605 48.33H637.605V36.43H636.605H635.605V48.33H636.605ZM636.605 36.43V37.43H643.185V36.43V35.43H636.605V36.43ZM643.185 36.43H642.185V48.33H643.185H644.185V36.43H643.185ZM643.185 48.33V49.33H655.085V48.33V47.33H643.185V48.33ZM655.085 48.33H654.085V54.63H655.085H656.085V48.33H655.085ZM655.085 54.63V53.63H643.185V54.63V55.63H655.085V54.63ZM643.185 54.63H642.185V66.53H643.185H644.185V54.63H643.185ZM643.185 66.53V65.53H636.605V66.53V67.53H643.185V66.53ZM636.605 66.53H637.605V54.63H636.605H635.605V66.53H636.605ZM636.605 54.63V53.63H624.705V54.63V55.63H636.605V54.63Z" fill="url(#paint3_linear_37_59)" mask="url(#path-9-outside-2_37_59)"/>
</g>
<path d="M819.685 119.32V108.13H821.845V130H819.685V128.26C818.965 129.19 817.615 130.36 815.425 130.36C812.275 130.36 809.365 128.14 809.365 123.76C809.365 119.47 812.245 117.25 815.425 117.25C817.825 117.25 819.115 118.57 819.685 119.32ZM815.665 119.17C813.535 119.17 811.585 120.73 811.585 123.76C811.585 126.43 813.085 128.44 815.665 128.44C818.305 128.44 819.805 126.25 819.805 123.79C819.805 120.58 817.585 119.17 815.665 119.17ZM835.476 119.32V117.55H837.636V130H835.476V128.26C834.756 129.19 833.406 130.36 831.216 130.36C828.066 130.36 825.156 128.14 825.156 123.76C825.156 119.47 828.036 117.25 831.216 117.25C833.616 117.25 834.906 118.57 835.476 119.32ZM831.456 119.17C829.326 119.17 827.376 120.73 827.376 123.76C827.376 126.43 828.876 128.44 831.456 128.44C834.096 128.44 835.596 126.25 835.596 123.79C835.596 120.58 833.376 119.17 831.456 119.17ZM846.108 119.53H843.948V130H841.788V119.53H840.468V117.55H841.788V113.05H843.948V117.55H846.108V119.53ZM857.684 119.32V117.55H859.844V130H857.684V128.26C856.964 129.19 855.614 130.36 853.424 130.36C850.274 130.36 847.364 128.14 847.364 123.76C847.364 119.47 850.244 117.25 853.424 117.25C855.824 117.25 857.114 118.57 857.684 119.32ZM853.664 119.17C851.534 119.17 849.584 120.73 849.584 123.76C849.584 126.43 851.084 128.44 853.664 128.44C856.304 128.44 857.804 126.25 857.804 123.79C857.804 120.58 855.584 119.17 853.664 119.17Z" fill="#C7E5F6"/>
<path d="M781.259 159V146.55H783.419V147.9C783.629 147.57 784.559 146.25 786.239 146.25C786.899 146.25 787.619 146.49 788.159 146.76L787.139 148.71C786.659 148.38 786.209 148.29 785.879 148.29C785.009 148.29 784.469 148.65 784.139 149.07C783.779 149.55 783.419 150.39 783.419 152.43V159H781.259ZM798.643 154.83L800.443 155.82C800.083 156.51 799.543 157.26 798.913 157.83C797.773 158.85 796.363 159.36 794.773 159.36C791.773 159.36 788.623 157.47 788.623 152.85C788.623 149.13 790.903 146.25 794.653 146.25C797.083 146.25 798.613 147.45 799.363 148.53C800.143 149.64 800.593 151.56 800.533 153.21H790.843C790.873 155.79 792.643 157.44 794.803 157.44C795.823 157.44 796.633 157.14 797.353 156.54C797.923 156.06 798.373 155.43 798.643 154.83ZM790.993 151.41H798.313C797.953 149.46 796.483 148.17 794.653 148.17C792.823 148.17 791.323 149.55 790.993 151.41ZM810.747 148.5L808.977 149.43C808.677 148.71 808.047 148.17 807.237 148.17C806.457 148.17 805.737 148.62 805.737 149.58C805.737 150.48 806.337 150.75 807.747 151.35C809.547 152.1 810.387 152.67 810.867 153.27C811.407 153.93 811.527 154.59 811.527 155.28C811.527 157.89 809.637 159.36 807.237 159.36C806.727 159.36 803.937 159.3 802.887 156.18L804.747 155.4C804.987 156.06 805.707 157.44 807.267 157.44C808.677 157.44 809.307 156.39 809.307 155.46C809.307 154.29 808.467 153.9 807.297 153.39C805.797 152.73 804.837 152.25 804.267 151.56C803.787 150.96 803.697 150.36 803.697 149.73C803.697 147.54 805.227 146.25 807.327 146.25C807.987 146.25 809.757 146.37 810.747 148.5ZM820.214 159.36C816.434 159.36 813.614 156.6 813.614 152.82C813.614 149.04 816.404 146.25 820.214 146.25C824.024 146.25 826.814 149.04 826.814 152.82C826.814 156.6 823.994 159.36 820.214 159.36ZM820.214 148.17C817.934 148.17 815.834 149.79 815.834 152.82C815.834 155.88 817.994 157.44 820.214 157.44C822.464 157.44 824.594 155.85 824.594 152.82C824.594 149.76 822.494 148.17 820.214 148.17ZM830.126 137.13H832.286V159H830.126V137.13ZM838.526 146.55V153.81C838.526 154.68 838.526 155.7 839.126 156.48C839.456 156.9 840.116 157.44 841.316 157.44C842.516 157.44 843.176 156.9 843.506 156.48C844.106 155.7 844.106 154.68 844.106 153.81V146.55H846.266V154.05C846.266 155.58 846.116 156.72 845.126 157.8C844.016 158.97 842.546 159.36 841.316 159.36C840.086 159.36 838.616 158.97 837.506 157.8C836.516 156.72 836.366 155.58 836.366 154.05V146.55H838.526ZM854.721 148.53H852.561V159H850.401V148.53H849.081V146.55H850.401V142.05H852.561V146.55H854.721V148.53ZM856.757 146.55H858.917V159H856.757V146.55ZM856.307 141.84C856.307 141 856.997 140.31 857.837 140.31C858.677 140.31 859.367 141 859.367 141.84C859.367 142.68 858.677 143.37 857.837 143.37C856.997 143.37 856.307 142.68 856.307 141.84ZM868.817 159.36C865.037 159.36 862.217 156.6 862.217 152.82C862.217 149.04 865.007 146.25 868.817 146.25C872.627 146.25 875.417 149.04 875.417 152.82C875.417 156.6 872.597 159.36 868.817 159.36ZM868.817 148.17C866.537 148.17 864.437 149.79 864.437 152.82C864.437 155.88 866.597 157.44 868.817 157.44C871.067 157.44 873.197 155.85 873.197 152.82C873.197 149.76 871.097 148.17 868.817 148.17ZM878.729 159V146.55H880.889V147.99C881.279 147.48 882.389 146.25 884.459 146.25C885.929 146.25 887.279 146.85 888.029 147.96C888.659 148.89 888.749 149.91 888.749 151.29V159H886.589V151.35C886.589 150.6 886.529 149.73 886.019 149.07C885.599 148.53 884.939 148.17 883.979 148.17C883.229 148.17 882.419 148.38 881.789 149.13C880.949 150.12 880.889 151.59 880.889 152.49V159H878.729Z" fill="#C7E5F6"/>
<g filter="url(#filter2_d_37_59)">
<mask id="path-13-outside-3_37_59" maskUnits="userSpaceOnUse" x="753" y="27" width="159" height="50" fill="black">
<rect fill="white" x="753" y="27" width="159" height="50"/>
<path d="M786.39 28.31V34.89H771.97L769.66 42.66C770.36 42.59 771.13 42.52 771.83 42.52C775.75 42.52 779.74 43.85 782.61 46.65C784.85 48.82 787.16 52.53 787.16 58.62C787.16 63.73 785.55 67.86 782.4 71.01C778.69 74.65 774.21 75.77 769.45 75.77C766.72 75.77 763.5 75.42 760.49 73.67C759.79 73.25 757.13 71.64 754.96 68.28L760.35 63.8C760.49 64.15 761.75 66.46 763.92 67.86C765.46 68.91 767.63 69.47 770.01 69.47C773.79 69.47 775.96 68 777.15 66.88C778.55 65.48 780.16 62.96 780.16 58.97C780.16 55.12 778.83 52.81 777.36 51.41C775.05 49.24 771.97 48.82 769.73 48.82C767.7 48.82 766.16 49.1 764.27 49.8C762.8 50.36 761.47 50.99 760.14 51.9L767.07 28.31H786.39ZM796.285 63.66V56.52H813.085V63.66H796.285ZM820.914 75V45.53H827.774V48.26C830.084 45.46 832.814 44.76 835.054 44.76C838.134 44.76 841.004 46.23 842.684 49.1C845.134 45.6 848.844 44.76 851.434 44.76C855.004 44.76 858.154 46.44 859.834 49.38C860.394 50.36 861.374 52.53 861.374 56.8V75H854.514V58.76C854.514 55.47 854.164 54.14 853.884 53.51C853.464 52.39 852.414 50.92 849.964 50.92C848.284 50.92 846.814 51.83 845.904 53.09C844.714 54.77 844.574 57.29 844.574 59.81V75H837.714V58.76C837.714 55.47 837.364 54.14 837.084 53.51C836.664 52.39 835.614 50.92 833.164 50.92C831.484 50.92 830.014 51.83 829.104 53.09C827.914 54.77 827.774 57.29 827.774 59.81V75H820.914ZM870.065 45.53H876.925V75H870.065V45.53ZM869.085 33.35C869.085 30.83 870.975 28.94 873.495 28.94C876.015 28.94 877.905 30.83 877.905 33.35C877.905 35.87 876.015 37.76 873.495 37.76C870.975 37.76 869.085 35.87 869.085 33.35ZM885.512 75V45.53H892.372V48.26C895.312 44.97 898.672 44.76 900.352 44.76C905.812 44.76 908.122 47.49 909.032 48.75C910.152 50.36 910.852 52.39 910.852 56.94V75H903.992V58.62C903.992 51.13 901.192 50.92 898.602 50.92C895.522 50.92 892.372 51.34 892.372 60.86V75H885.512Z"/>
</mask>
<path d="M786.39 28.31V34.89H771.97L769.66 42.66C770.36 42.59 771.13 42.52 771.83 42.52C775.75 42.52 779.74 43.85 782.61 46.65C784.85 48.82 787.16 52.53 787.16 58.62C787.16 63.73 785.55 67.86 782.4 71.01C778.69 74.65 774.21 75.77 769.45 75.77C766.72 75.77 763.5 75.42 760.49 73.67C759.79 73.25 757.13 71.64 754.96 68.28L760.35 63.8C760.49 64.15 761.75 66.46 763.92 67.86C765.46 68.91 767.63 69.47 770.01 69.47C773.79 69.47 775.96 68 777.15 66.88C778.55 65.48 780.16 62.96 780.16 58.97C780.16 55.12 778.83 52.81 777.36 51.41C775.05 49.24 771.97 48.82 769.73 48.82C767.7 48.82 766.16 49.1 764.27 49.8C762.8 50.36 761.47 50.99 760.14 51.9L767.07 28.31H786.39ZM796.285 63.66V56.52H813.085V63.66H796.285ZM820.914 75V45.53H827.774V48.26C830.084 45.46 832.814 44.76 835.054 44.76C838.134 44.76 841.004 46.23 842.684 49.1C845.134 45.6 848.844 44.76 851.434 44.76C855.004 44.76 858.154 46.44 859.834 49.38C860.394 50.36 861.374 52.53 861.374 56.8V75H854.514V58.76C854.514 55.47 854.164 54.14 853.884 53.51C853.464 52.39 852.414 50.92 849.964 50.92C848.284 50.92 846.814 51.83 845.904 53.09C844.714 54.77 844.574 57.29 844.574 59.81V75H837.714V58.76C837.714 55.47 837.364 54.14 837.084 53.51C836.664 52.39 835.614 50.92 833.164 50.92C831.484 50.92 830.014 51.83 829.104 53.09C827.914 54.77 827.774 57.29 827.774 59.81V75H820.914ZM870.065 45.53H876.925V75H870.065V45.53ZM869.085 33.35C869.085 30.83 870.975 28.94 873.495 28.94C876.015 28.94 877.905 30.83 877.905 33.35C877.905 35.87 876.015 37.76 873.495 37.76C870.975 37.76 869.085 35.87 869.085 33.35ZM885.512 75V45.53H892.372V48.26C895.312 44.97 898.672 44.76 900.352 44.76C905.812 44.76 908.122 47.49 909.032 48.75C910.152 50.36 910.852 52.39 910.852 56.94V75H903.992V58.62C903.992 51.13 901.192 50.92 898.602 50.92C895.522 50.92 892.372 51.34 892.372 60.86V75H885.512Z" fill="#C7E5F6"/>
<path d="M786.39 28.31H787.39V27.31H786.39V28.31ZM786.39 34.89V35.89H787.39V34.89H786.39ZM771.97 34.89V33.89H771.224L771.011 34.605L771.97 34.89ZM769.66 42.66L768.701 42.375L768.277 43.8033L769.76 43.655L769.66 42.66ZM782.61 46.65L781.912 47.3658L781.914 47.3682L782.61 46.65ZM782.4 71.01L783.1 71.7238L783.107 71.7171L782.4 71.01ZM760.49 73.67L759.975 74.5276L759.987 74.5345L760.49 73.67ZM754.96 68.28L754.321 67.511L753.639 68.0777L754.12 68.8225L754.96 68.28ZM760.35 63.8L761.278 63.4286L760.768 62.1523L759.711 63.031L760.35 63.8ZM763.92 67.86L764.483 67.0338L764.473 67.0266L764.462 67.0197L763.92 67.86ZM777.15 66.88L777.835 67.6082L777.846 67.5978L777.857 67.5871L777.15 66.88ZM777.36 51.41L778.05 50.6858L778.045 50.6812L777.36 51.41ZM764.27 49.8L763.923 48.8622L763.914 48.8655L764.27 49.8ZM760.14 51.9L759.181 51.6181L758.39 54.309L760.705 52.7253L760.14 51.9ZM767.07 28.31V27.31H766.322L766.111 28.0281L767.07 28.31ZM786.39 28.31H785.39V34.89H786.39H787.39V28.31H786.39ZM786.39 34.89V33.89H771.97V34.89V35.89H786.39V34.89ZM771.97 34.89L771.011 34.605L768.701 42.375L769.66 42.66L770.619 42.945L772.929 35.175L771.97 34.89ZM769.66 42.66L769.76 43.655C770.461 43.5849 771.186 43.52 771.83 43.52V42.52V41.52C771.074 41.52 770.259 41.5951 769.56 41.665L769.66 42.66ZM771.83 42.52V43.52C775.538 43.52 779.261 44.7793 781.912 47.3658L782.61 46.65L783.308 45.9342C780.219 42.9207 775.962 41.52 771.83 41.52V42.52ZM782.61 46.65L781.914 47.3682C783.972 49.3619 786.16 52.8175 786.16 58.62H787.16H788.16C788.16 52.2425 785.728 48.2781 783.306 45.9318L782.61 46.65ZM787.16 58.62H786.16C786.16 63.5014 784.631 67.3649 781.693 70.3029L782.4 71.01L783.107 71.7171C786.469 68.3551 788.16 63.9585 788.16 58.62H787.16ZM782.4 71.01L781.7 70.2962C778.236 73.6945 774.045 74.77 769.45 74.77V75.77V76.77C774.375 76.77 779.144 75.6055 783.1 71.7238L782.4 71.01ZM769.45 75.77V74.77C766.796 74.77 763.782 74.4272 760.993 72.8055L760.49 73.67L759.987 74.5345C763.218 76.4128 766.644 76.77 769.45 76.77V75.77ZM760.49 73.67L761.004 72.8125C760.354 72.422 757.847 70.9075 755.8 67.7375L754.96 68.28L754.12 68.8225C756.413 72.3725 759.226 74.078 759.976 74.5275L760.49 73.67ZM754.96 68.28L755.599 69.049L760.989 64.569L760.35 63.8L759.711 63.031L754.321 67.511L754.96 68.28ZM760.35 63.8L759.422 64.1714C759.536 64.4564 759.94 65.2003 760.577 66.0404C761.224 66.8944 762.164 67.9168 763.378 68.7003L763.92 67.86L764.462 67.0197C763.506 66.4032 762.731 65.5706 762.171 64.8321C761.893 64.4658 761.675 64.1314 761.52 63.8726C761.443 63.7432 761.383 63.6349 761.34 63.5533C761.294 63.4646 761.277 63.4253 761.278 63.4286L760.35 63.8ZM763.92 67.86L763.357 68.6862C765.108 69.8804 767.492 70.47 770.01 70.47V69.47V68.47C767.768 68.47 765.812 67.9396 764.483 67.0338L763.92 67.86ZM770.01 69.47V70.47C774.091 70.47 776.497 68.8683 777.835 67.6082L777.15 66.88L776.465 66.1518C775.423 67.1317 773.489 68.47 770.01 68.47V69.47ZM777.15 66.88L777.857 67.5871C779.419 66.0251 781.16 63.2592 781.16 58.97H780.16H779.16C779.16 62.6608 777.681 64.9349 776.443 66.1729L777.15 66.88ZM780.16 58.97H781.16C781.16 54.8589 779.727 52.2831 778.05 50.6859L777.36 51.41L776.67 52.1341C777.933 53.3369 779.16 55.3811 779.16 58.97H780.16ZM777.36 51.41L778.045 50.6812C775.456 48.2491 772.058 47.82 769.73 47.82V48.82V49.82C771.882 49.82 774.644 50.2309 776.675 52.1388L777.36 51.41ZM769.73 48.82V47.82C767.58 47.82 765.923 48.1214 763.923 48.8623L764.27 49.8L764.617 50.7377C766.397 50.0786 767.82 49.82 769.73 49.82V48.82ZM764.27 49.8L763.914 48.8655C762.395 49.4441 760.989 50.1074 759.575 51.0747L760.14 51.9L760.705 52.7253C761.951 51.8726 763.205 51.2759 764.626 50.7345L764.27 49.8ZM760.14 51.9L761.099 52.1819L768.029 28.5919L767.07 28.31L766.111 28.0281L759.181 51.6181L760.14 51.9ZM767.07 28.31V29.31H786.39V28.31V27.31H767.07V28.31ZM796.285 63.66H795.285V64.66H796.285V63.66ZM796.285 56.52V55.52H795.285V56.52H796.285ZM813.085 56.52H814.085V55.52H813.085V56.52ZM813.085 63.66V64.66H814.085V63.66H813.085ZM796.285 63.66H797.285V56.52H796.285H795.285V63.66H796.285ZM796.285 56.52V57.52H813.085V56.52V55.52H796.285V56.52ZM813.085 56.52H812.085V63.66H813.085H814.085V56.52H813.085ZM813.085 63.66V62.66H796.285V63.66V64.66H813.085V63.66ZM820.914 75H819.914V76H820.914V75ZM820.914 45.53V44.53H819.914V45.53H820.914ZM827.774 45.53H828.774V44.53H827.774V45.53ZM827.774 48.26H826.774V51.0435L828.546 48.8964L827.774 48.26ZM842.684 49.1L841.821 49.6052L842.609 50.9511L843.503 49.6735L842.684 49.1ZM859.834 49.38L858.966 49.8761L858.966 49.8761L859.834 49.38ZM861.374 75V76H862.374V75H861.374ZM854.514 75H853.514V76H854.514V75ZM853.884 53.51L852.948 53.8611L852.958 53.889L852.97 53.9161L853.884 53.51ZM845.904 53.09L845.094 52.5045L845.088 52.512L845.904 53.09ZM844.574 75V76H845.574V75H844.574ZM837.714 75H836.714V76H837.714V75ZM837.084 53.51L836.148 53.8611L836.158 53.889L836.17 53.9161L837.084 53.51ZM829.104 53.09L828.294 52.5045L828.288 52.512L829.104 53.09ZM827.774 75V76H828.774V75H827.774ZM820.914 75H821.914V45.53H820.914H819.914V75H820.914ZM820.914 45.53V46.53H827.774V45.53V44.53H820.914V45.53ZM827.774 45.53H826.774V48.26H827.774H828.774V45.53H827.774ZM827.774 48.26L828.546 48.8964C830.627 46.3735 833.046 45.76 835.054 45.76V44.76V43.76C832.582 43.76 829.541 44.5465 827.003 47.6236L827.774 48.26ZM835.054 44.76V45.76C837.803 45.76 840.332 47.0616 841.821 49.6052L842.684 49.1L843.547 48.5948C841.676 45.3984 838.466 43.76 835.054 43.76V44.76ZM842.684 49.1L843.503 49.6735C845.698 46.5379 849.031 45.76 851.434 45.76V44.76V43.76C848.658 43.76 844.57 44.6621 841.865 48.5265L842.684 49.1ZM851.434 44.76V45.76C854.687 45.76 857.484 47.2823 858.966 49.8761L859.834 49.38L860.702 48.8839C858.825 45.5977 855.321 43.76 851.434 43.76V44.76ZM859.834 49.38L858.966 49.8761C859.438 50.7019 860.374 52.7004 860.374 56.8H861.374H862.374C862.374 52.3596 861.351 50.0181 860.702 48.8839L859.834 49.38ZM861.374 56.8H860.374V75H861.374H862.374V56.8H861.374ZM861.374 75V74H854.514V75V76H861.374V75ZM854.514 75H855.514V58.76H854.514H853.514V75H854.514ZM854.514 58.76H855.514C855.514 55.4256 855.164 53.927 854.798 53.1039L853.884 53.51L852.97 53.9161C853.165 54.353 853.514 55.5144 853.514 58.76H854.514ZM853.884 53.51L854.821 53.1589C854.568 52.4843 854.113 51.6699 853.318 51.0206C852.508 50.3585 851.406 49.92 849.964 49.92V50.92V51.92C850.973 51.92 851.621 52.2165 852.053 52.5694C852.5 52.9351 852.781 53.4157 852.948 53.8611L853.884 53.51ZM849.964 50.92V49.92C847.912 49.92 846.159 51.0288 845.094 52.5045L845.904 53.09L846.715 53.6755C847.469 52.6312 848.657 51.92 849.964 51.92V50.92ZM845.904 53.09L845.088 52.512C844.37 53.5254 844.002 54.7429 843.805 55.9779C843.609 57.2149 843.574 58.5406 843.574 59.81H844.574H845.574C845.574 58.5594 845.61 57.3651 845.781 56.2921C845.952 55.217 846.248 54.3346 846.72 53.668L845.904 53.09ZM844.574 59.81H843.574V75H844.574H845.574V59.81H844.574ZM844.574 75V74H837.714V75V76H844.574V75ZM837.714 75H838.714V58.76H837.714H836.714V75H837.714ZM837.714 58.76H838.714C838.714 55.4256 838.364 53.927 837.998 53.1039L837.084 53.51L836.17 53.9161C836.365 54.353 836.714 55.5144 836.714 58.76H837.714ZM837.084 53.51L838.021 53.1589C837.768 52.4843 837.313 51.6699 836.518 51.0206C835.708 50.3585 834.606 49.92 833.164 49.92V50.92V51.92C834.173 51.92 834.821 52.2165 835.253 52.5694C835.7 52.9351 835.981 53.4157 836.148 53.8611L837.084 53.51ZM833.164 50.92V49.92C831.112 49.92 829.359 51.0288 828.294 52.5045L829.104 53.09L829.915 53.6755C830.669 52.6312 831.857 51.92 833.164 51.92V50.92ZM829.104 53.09L828.288 52.512C827.57 53.5254 827.202 54.743 827.005 55.9779C826.809 57.2149 826.774 58.5406 826.774 59.81H827.774H828.774C828.774 58.5594 828.81 57.3651 828.981 56.2921C829.152 55.217 829.448 54.3346 829.92 53.668L829.104 53.09ZM827.774 59.81H826.774V75H827.774H828.774V59.81H827.774ZM827.774 75V74H820.914V75V76H827.774V75ZM870.065 45.53V44.53H869.065V45.53H870.065ZM876.925 45.53H877.925V44.53H876.925V45.53ZM876.925 75V76H877.925V75H876.925ZM870.065 75H869.065V76H870.065V75ZM870.065 45.53V46.53H876.925V45.53V44.53H870.065V45.53ZM876.925 45.53H875.925V75H876.925H877.925V45.53H876.925ZM876.925 75V74H870.065V75V76H876.925V75ZM870.065 75H871.065V45.53H870.065H869.065V75H870.065ZM869.085 33.35H870.085C870.085 31.3823 871.527 29.94 873.495 29.94V28.94V27.94C870.422 27.94 868.085 30.2777 868.085 33.35H869.085ZM873.495 28.94V29.94C875.462 29.94 876.905 31.3823 876.905 33.35H877.905H878.905C878.905 30.2777 876.567 27.94 873.495 27.94V28.94ZM877.905 33.35H876.905C876.905 35.3177 875.462 36.76 873.495 36.76V37.76V38.76C876.567 38.76 878.905 36.4223 878.905 33.35H877.905ZM873.495 37.76V36.76C871.527 36.76 870.085 35.3177 870.085 33.35H869.085H868.085C868.085 36.4223 870.422 38.76 873.495 38.76V37.76ZM885.512 75H884.512V76H885.512V75ZM885.512 45.53V44.53H884.512V45.53H885.512ZM892.372 45.53H893.372V44.53H892.372V45.53ZM892.372 48.26H891.372V50.8798L893.118 48.9263L892.372 48.26ZM909.032 48.75L909.853 48.1789L909.848 48.1717L909.843 48.1645L909.032 48.75ZM910.852 75V76H911.852V75H910.852ZM903.992 75H902.992V76H903.992V75ZM892.372 75V76H893.372V75H892.372ZM885.512 75H886.512V45.53H885.512H884.512V75H885.512ZM885.512 45.53V46.53H892.372V45.53V44.53H885.512V45.53ZM892.372 45.53H891.372V48.26H892.372H893.372V45.53H892.372ZM892.372 48.26L893.118 48.9263C895.778 45.949 898.787 45.76 900.352 45.76V44.76V43.76C898.558 43.76 894.846 43.991 891.627 47.5937L892.372 48.26ZM900.352 44.76V45.76C902.905 45.76 904.666 46.3953 905.877 47.1356C907.094 47.8797 907.807 48.7617 908.222 49.3355L909.032 48.75L909.843 48.1645C909.347 47.4783 908.451 46.3653 906.92 45.4294C905.383 44.4897 903.259 43.76 900.352 43.76V44.76ZM909.032 48.75L908.211 49.3211C909.17 50.6993 909.852 52.4988 909.852 56.94H910.852H911.852C911.852 52.2812 911.134 50.0207 909.853 48.1789L909.032 48.75ZM910.852 56.94H909.852V75H910.852H911.852V56.94H910.852ZM910.852 75V74H903.992V75V76H910.852V75ZM903.992 75H904.992V58.62H903.992H902.992V75H903.992ZM903.992 58.62H904.992C904.992 54.8132 904.294 52.5269 902.963 51.242C901.615 49.9402 899.863 49.92 898.602 49.92V50.92V51.92C899.931 51.92 900.874 52.0048 901.574 52.6805C902.291 53.3731 902.992 54.9368 902.992 58.62H903.992ZM898.602 50.92V49.92C897.064 49.92 895.084 50.0001 893.591 51.6488C892.153 53.2374 891.372 56.0565 891.372 60.86H892.372H893.372C893.372 56.1435 894.167 53.9926 895.073 52.9912C895.926 52.0499 897.061 51.92 898.602 51.92V50.92ZM892.372 60.86H891.372V75H892.372H893.372V60.86H892.372ZM892.372 75V74H885.512V75V76H892.372V75Z" fill="url(#paint4_linear_37_59)" mask="url(#path-13-outside-3_37_59)"/>
</g>
<path d="M1010.29 125.83L1012.09 126.82C1011.73 127.51 1011.19 128.26 1010.56 128.83C1009.42 129.85 1008.01 130.36 1006.42 130.36C1003.42 130.36 1000.27 128.47 1000.27 123.85C1000.27 120.13 1002.55 117.25 1006.3 117.25C1008.73 117.25 1010.26 118.45 1011.01 119.53C1011.79 120.64 1012.24 122.56 1012.18 124.21H1002.49C1002.52 126.79 1004.29 128.44 1006.45 128.44C1007.47 128.44 1008.28 128.14 1009 127.54C1009.57 127.06 1010.02 126.43 1010.29 125.83ZM1002.64 122.41H1009.96C1009.6 120.46 1008.13 119.17 1006.3 119.17C1004.47 119.17 1002.97 120.55 1002.64 122.41ZM1015.49 130V117.55H1017.65V118.99C1018.04 118.48 1019.15 117.25 1021.22 117.25C1022.69 117.25 1024.04 117.85 1024.79 118.96C1025.42 119.89 1025.51 120.91 1025.51 122.29V130H1023.35V122.35C1023.35 121.6 1023.29 120.73 1022.78 120.07C1022.36 119.53 1021.7 119.17 1020.74 119.17C1019.99 119.17 1019.18 119.38 1018.55 120.13C1017.71 121.12 1017.65 122.59 1017.65 123.49V130H1015.49ZM1027.79 117.55H1030.19L1033.91 125.95L1037.63 117.55H1040.03L1033.91 130.81L1027.79 117.55ZM1042.3 117.55H1044.46V130H1042.3V117.55ZM1041.85 112.84C1041.85 112 1042.54 111.31 1043.38 111.31C1044.22 111.31 1044.91 112 1044.91 112.84C1044.91 113.68 1044.22 114.37 1043.38 114.37C1042.54 114.37 1041.85 113.68 1041.85 112.84ZM1048.54 130V117.55H1050.7V118.9C1050.91 118.57 1051.84 117.25 1053.52 117.25C1054.18 117.25 1054.9 117.49 1055.44 117.76L1054.42 119.71C1053.94 119.38 1053.49 119.29 1053.16 119.29C1052.29 119.29 1051.75 119.65 1051.42 120.07C1051.06 120.55 1050.7 121.39 1050.7 123.43V130H1048.54ZM1062.51 130.36C1058.73 130.36 1055.91 127.6 1055.91 123.82C1055.91 120.04 1058.7 117.25 1062.51 117.25C1066.32 117.25 1069.11 120.04 1069.11 123.82C1069.11 127.6 1066.29 130.36 1062.51 130.36ZM1062.51 119.17C1060.23 119.17 1058.13 120.79 1058.13 123.82C1058.13 126.88 1060.29 128.44 1062.51 128.44C1064.76 128.44 1066.89 126.85 1066.89 123.82C1066.89 120.76 1064.79 119.17 1062.51 119.17ZM1072.42 130V117.55H1074.58V118.99C1074.97 118.48 1076.08 117.25 1078.15 117.25C1079.62 117.25 1080.97 117.85 1081.72 118.96C1082.35 119.89 1082.44 120.91 1082.44 122.29V130H1080.28V122.35C1080.28 121.6 1080.22 120.73 1079.71 120.07C1079.29 119.53 1078.63 119.17 1077.67 119.17C1076.92 119.17 1076.11 119.38 1075.48 120.13C1074.64 121.12 1074.58 122.59 1074.58 123.49V130H1072.42ZM1086.51 130V117.55H1088.67V118.87C1089.36 117.85 1090.44 117.25 1091.76 117.25C1094.01 117.25 1094.91 118.84 1095.15 119.26C1096.35 117.37 1098.06 117.25 1098.9 117.25C1102.59 117.25 1102.95 120.34 1102.95 122.11V130H1100.79V122.44C1100.79 121.03 1100.61 119.17 1098.57 119.17C1096.08 119.17 1095.81 121.57 1095.81 123.07V130H1093.65V122.62C1093.65 121.75 1093.68 119.17 1091.4 119.17C1088.94 119.17 1088.67 121.72 1088.67 123.22V130H1086.51ZM1116.29 125.83L1118.09 126.82C1117.73 127.51 1117.19 128.26 1116.56 128.83C1115.42 129.85 1114.01 130.36 1112.42 130.36C1109.42 130.36 1106.27 128.47 1106.27 123.85C1106.27 120.13 1108.55 117.25 1112.3 117.25C1114.73 117.25 1116.26 118.45 1117.01 119.53C1117.79 120.64 1118.24 122.56 1118.18 124.21H1108.49C1108.52 126.79 1110.29 128.44 1112.45 128.44C1113.47 128.44 1114.28 128.14 1115 127.54C1115.57 127.06 1116.02 126.43 1116.29 125.83ZM1108.64 122.41H1115.96C1115.6 120.46 1114.13 119.17 1112.3 119.17C1110.47 119.17 1108.97 120.55 1108.64 122.41ZM1121.49 130V117.55H1123.65V118.99C1124.04 118.48 1125.15 117.25 1127.22 117.25C1128.69 117.25 1130.04 117.85 1130.79 118.96C1131.42 119.89 1131.51 120.91 1131.51 122.29V130H1129.35V122.35C1129.35 121.6 1129.29 120.73 1128.78 120.07C1128.36 119.53 1127.7 119.17 1126.74 119.17C1125.99 119.17 1125.18 119.38 1124.55 120.13C1123.71 121.12 1123.65 122.59 1123.65 123.49V130H1121.49ZM1139.96 119.53H1137.8V130H1135.64V119.53H1134.32V117.55H1135.64V113.05H1137.8V117.55H1139.96V119.53ZM1151.54 119.32V117.55H1153.7V130H1151.54V128.26C1150.82 129.19 1149.47 130.36 1147.28 130.36C1144.13 130.36 1141.22 128.14 1141.22 123.76C1141.22 119.47 1144.1 117.25 1147.28 117.25C1149.68 117.25 1150.97 118.57 1151.54 119.32ZM1147.52 119.17C1145.39 119.17 1143.44 120.73 1143.44 123.76C1143.44 126.43 1144.94 128.44 1147.52 128.44C1150.16 128.44 1151.66 126.25 1151.66 123.79C1151.66 120.58 1149.44 119.17 1147.52 119.17ZM1157.79 108.13H1159.95V130H1157.79V108.13Z" fill="#C7E5F6"/>
<path d="M1037.14 147.45V150.03C1036 148.59 1034.35 148.17 1033.24 148.17C1030.93 148.17 1028.83 149.79 1028.83 152.82C1028.83 155.85 1030.99 157.44 1033.21 157.44C1034.5 157.44 1036.09 156.87 1037.23 155.49V158.07C1035.88 159.06 1034.44 159.36 1033.27 159.36C1029.4 159.36 1026.61 156.6 1026.61 152.85C1026.61 149.04 1029.43 146.25 1033.27 146.25C1035.25 146.25 1036.54 147.03 1037.14 147.45ZM1046.36 159.36C1042.58 159.36 1039.76 156.6 1039.76 152.82C1039.76 149.04 1042.55 146.25 1046.36 146.25C1050.17 146.25 1052.96 149.04 1052.96 152.82C1052.96 156.6 1050.14 159.36 1046.36 159.36ZM1046.36 148.17C1044.08 148.17 1041.98 149.79 1041.98 152.82C1041.98 155.88 1044.14 157.44 1046.36 157.44C1048.61 157.44 1050.74 155.85 1050.74 152.82C1050.74 149.76 1048.64 148.17 1046.36 148.17ZM1054.48 146.55H1056.88L1060.6 154.95L1064.32 146.55H1066.72L1060.6 159.81L1054.48 146.55ZM1078.23 154.83L1080.03 155.82C1079.67 156.51 1079.13 157.26 1078.5 157.83C1077.36 158.85 1075.95 159.36 1074.36 159.36C1071.36 159.36 1068.21 157.47 1068.21 152.85C1068.21 149.13 1070.49 146.25 1074.24 146.25C1076.67 146.25 1078.2 147.45 1078.95 148.53C1079.73 149.64 1080.18 151.56 1080.12 153.21H1070.43C1070.46 155.79 1072.23 157.44 1074.39 157.44C1075.41 157.44 1076.22 157.14 1076.94 156.54C1077.51 156.06 1077.96 155.43 1078.23 154.83ZM1070.58 151.41H1077.9C1077.54 149.46 1076.07 148.17 1074.24 148.17C1072.41 148.17 1070.91 149.55 1070.58 151.41ZM1083.43 159V146.55H1085.59V147.9C1085.8 147.57 1086.73 146.25 1088.41 146.25C1089.07 146.25 1089.79 146.49 1090.33 146.76L1089.31 148.71C1088.83 148.38 1088.38 148.29 1088.05 148.29C1087.18 148.29 1086.64 148.65 1086.31 149.07C1085.95 149.55 1085.59 150.39 1085.59 152.43V159H1083.43ZM1101.21 148.32V146.55H1103.37V159H1101.21V157.26C1100.49 158.19 1099.14 159.36 1096.95 159.36C1093.8 159.36 1090.89 157.14 1090.89 152.76C1090.89 148.47 1093.77 146.25 1096.95 146.25C1099.35 146.25 1100.64 147.57 1101.21 148.32ZM1097.19 148.17C1095.06 148.17 1093.11 149.73 1093.11 152.76C1093.11 155.43 1094.61 157.44 1097.19 157.44C1099.83 157.44 1101.33 155.25 1101.33 152.79C1101.33 149.58 1099.11 148.17 1097.19 148.17ZM1117 148.32V146.55H1119.16V158.7C1119.16 160.05 1119.16 161.97 1117.96 163.59C1117.03 164.85 1115.32 165.9 1112.98 165.9C1110.85 165.9 1109.38 165.06 1108.54 164.22C1107.7 163.38 1106.92 162.03 1106.92 160.2H1109.05C1109.05 161.25 1109.47 162.18 1110.01 162.78C1110.91 163.77 1112.05 163.98 1113.01 163.98C1114.54 163.98 1115.59 163.44 1116.31 162.24C1116.94 161.22 1117 160.11 1117 159.06V157.26C1116.28 158.19 1114.93 159.36 1112.74 159.36C1110.91 159.36 1109.44 158.64 1108.48 157.68C1107.64 156.84 1106.68 155.28 1106.68 152.76C1106.68 150.33 1107.58 148.83 1108.48 147.93C1109.53 146.91 1111.06 146.25 1112.74 146.25C1114.57 146.25 1116.01 147.03 1117 148.32ZM1112.98 148.17C1111.66 148.17 1110.76 148.74 1110.16 149.34C1109.11 150.42 1108.9 151.74 1108.9 152.76C1108.9 153.84 1109.11 155.31 1110.31 156.42C1111 157.05 1111.84 157.44 1112.98 157.44C1114.12 157.44 1115.02 157.08 1115.71 156.39C1116.55 155.58 1117.12 154.26 1117.12 152.79C1117.12 151.32 1116.58 150.03 1115.8 149.28C1115.11 148.59 1114.09 148.17 1112.98 148.17ZM1132.49 154.83L1134.29 155.82C1133.93 156.51 1133.39 157.26 1132.76 157.83C1131.62 158.85 1130.21 159.36 1128.62 159.36C1125.62 159.36 1122.47 157.47 1122.47 152.85C1122.47 149.13 1124.75 146.25 1128.5 146.25C1130.93 146.25 1132.46 147.45 1133.21 148.53C1133.99 149.64 1134.44 151.56 1134.38 153.21H1124.69C1124.72 155.79 1126.49 157.44 1128.65 157.44C1129.67 157.44 1130.48 157.14 1131.2 156.54C1131.77 156.06 1132.22 155.43 1132.49 154.83ZM1124.84 151.41H1132.16C1131.8 149.46 1130.33 148.17 1128.5 148.17C1126.67 148.17 1125.17 149.55 1124.84 151.41Z" fill="#C7E5F6"/>
<g filter="url(#filter3_d_37_59)">
<mask id="path-17-outside-4_37_59" maskUnits="userSpaceOnUse" x="1043" y="21" width="76" height="72" fill="black">
<rect fill="white" x="1043" y="21" width="76" height="72"/>
<path d="M1075.36 24.88V59.6H1080.4V66.18H1075.36V75H1068.5V66.18H1045.4L1075.36 24.88ZM1057.86 59.74H1068.5V44.69L1057.86 59.74ZM1085.96 91.03L1096.81 70.38L1084.21 45.53H1092.47L1100.87 62.75L1109.41 45.53H1117.11L1093.66 91.03H1085.96Z"/>
</mask>
<path d="M1075.36 24.88V59.6H1080.4V66.18H1075.36V75H1068.5V66.18H1045.4L1075.36 24.88ZM1057.86 59.74H1068.5V44.69L1057.86 59.74ZM1085.96 91.03L1096.81 70.38L1084.21 45.53H1092.47L1100.87 62.75L1109.41 45.53H1117.11L1093.66 91.03H1085.96Z" fill="#C7E5F6"/>
<path d="M1075.36 24.88H1076.36V21.7985L1074.55 24.2928L1075.36 24.88ZM1075.36 59.6H1074.36V60.6H1075.36V59.6ZM1080.4 59.6H1081.4V58.6H1080.4V59.6ZM1080.4 66.18V67.18H1081.4V66.18H1080.4ZM1075.36 66.18V65.18H1074.36V66.18H1075.36ZM1075.36 75V76H1076.36V75H1075.36ZM1068.5 75H1067.5V76H1068.5V75ZM1068.5 66.18H1069.5V65.18H1068.5V66.18ZM1045.4 66.18L1044.59 65.5928L1043.44 67.18H1045.4V66.18ZM1057.86 59.74L1057.04 59.1627L1055.93 60.74H1057.86V59.74ZM1068.5 59.74V60.74H1069.5V59.74H1068.5ZM1068.5 44.69H1069.5V41.5433L1067.68 44.1127L1068.5 44.69ZM1075.36 24.88H1074.36V59.6H1075.36H1076.36V24.88H1075.36ZM1075.36 59.6V60.6H1080.4V59.6V58.6H1075.36V59.6ZM1080.4 59.6H1079.4V66.18H1080.4H1081.4V59.6H1080.4ZM1080.4 66.18V65.18H1075.36V66.18V67.18H1080.4V66.18ZM1075.36 66.18H1074.36V75H1075.36H1076.36V66.18H1075.36ZM1075.36 75V74H1068.5V75V76H1075.36V75ZM1068.5 75H1069.5V66.18H1068.5H1067.5V75H1068.5ZM1068.5 66.18V65.18H1045.4V66.18V67.18H1068.5V66.18ZM1045.4 66.18L1046.21 66.7672L1076.17 25.4672L1075.36 24.88L1074.55 24.2928L1044.59 65.5928L1045.4 66.18ZM1057.86 59.74V60.74H1068.5V59.74V58.74H1057.86V59.74ZM1068.5 59.74H1069.5V44.69H1068.5H1067.5V59.74H1068.5ZM1068.5 44.69L1067.68 44.1127L1057.04 59.1627L1057.86 59.74L1058.68 60.3173L1069.32 45.2673L1068.5 44.69ZM1085.96 91.03L1085.07 90.5649L1084.3 92.03H1085.96V91.03ZM1096.81 70.38L1097.69 70.8451L1097.93 70.3882L1097.7 69.9278L1096.81 70.38ZM1084.21 45.53V44.53H1082.58L1083.31 45.9822L1084.21 45.53ZM1092.47 45.53L1093.36 45.0916L1093.09 44.53H1092.47V45.53ZM1100.87 62.75L1099.97 63.1884L1100.86 65.0157L1101.76 63.1943L1100.87 62.75ZM1109.41 45.53V44.53H1108.78L1108.51 45.0857L1109.41 45.53ZM1117.11 45.53L1117.99 45.9881L1118.75 44.53H1117.11V45.53ZM1093.66 91.03V92.03H1094.26L1094.54 91.4881L1093.66 91.03ZM1085.96 91.03L1086.84 91.4951L1097.69 70.8451L1096.81 70.38L1095.92 69.9149L1085.07 90.5649L1085.96 91.03ZM1096.81 70.38L1097.7 69.9278L1085.1 45.0778L1084.21 45.53L1083.31 45.9822L1095.91 70.8322L1096.81 70.38ZM1084.21 45.53V46.53H1092.47V45.53V44.53H1084.21V45.53ZM1092.47 45.53L1091.57 45.9684L1099.97 63.1884L1100.87 62.75L1101.76 62.3116L1093.36 45.0916L1092.47 45.53ZM1100.87 62.75L1101.76 63.1943L1110.3 45.9743L1109.41 45.53L1108.51 45.0857L1099.97 62.3057L1100.87 62.75ZM1109.41 45.53V46.53H1117.11V45.53V44.53H1109.41V45.53ZM1117.11 45.53L1116.22 45.0719L1092.77 90.5719L1093.66 91.03L1094.54 91.4881L1117.99 45.9881L1117.11 45.53ZM1093.66 91.03V90.03H1085.96V91.03V92.03H1093.66V91.03Z" fill="url(#paint5_linear_37_59)" mask="url(#path-17-outside-4_37_59)"/>
</g>
<rect x="492.5" y="1.5" width="195.88" height="178" rx="28.5" stroke="url(#paint6_linear_37_59)" stroke-width="3"/>
<rect x="737.5" y="1.5" width="195.88" height="178" rx="28.5" stroke="url(#paint7_linear_37_59)" stroke-width="3"/>
<rect x="982.5" y="1.5" width="195.88" height="178" rx="28.5" stroke="url(#paint8_linear_37_59)" stroke-width="3"/>
<path d="M52.4822 109.99H54.9422L60.2222 124.99L66.4922 108.97L72.4322 124.99L78.2822 109.99H80.7422L72.3422 131.05L66.4622 115.03L60.1622 131.05L52.4822 109.99ZM94.2724 112.78L92.5024 113.95C92.2324 113.41 91.7824 112.81 91.3324 112.45C90.9424 112.15 90.2224 111.76 89.0824 111.76C87.1024 111.76 85.7224 112.99 85.7224 114.85C85.7224 115.63 85.9324 116.08 86.4724 116.59C87.0724 117.19 87.8224 117.52 88.5724 117.85L90.4924 118.69C91.6624 119.2 92.7424 119.74 93.5824 120.58C94.6024 121.6 95.0224 122.77 95.0224 124.21C95.0224 127.9 92.2924 130.36 88.6924 130.36C87.3724 130.36 85.7224 130.09 84.3424 128.74C83.3524 127.78 82.7524 126.4 82.4824 125.2L84.6424 124.6C84.7924 125.65 85.2724 126.55 85.8424 127.15C86.7124 128.02 87.7024 128.26 88.7224 128.26C91.4524 128.26 92.7424 126.31 92.7424 124.3C92.7424 123.4 92.4724 122.62 91.7524 121.96C91.1824 121.42 90.4024 121.06 89.3524 120.58L87.5524 119.74C86.7724 119.38 85.7824 118.96 84.8824 118.09C84.0124 117.25 83.5024 116.32 83.5024 114.82C83.5024 111.73 85.8724 109.66 89.1124 109.66C90.3424 109.66 91.3324 109.9 92.3224 110.56C93.1324 111.1 93.8224 111.91 94.2724 112.78ZM104.49 130V112.09H101.13L102.3 109.99H106.71V130H104.49ZM120.176 130.36C118.586 130.36 116.576 129.58 115.046 127.36C113.726 125.44 113.036 122.86 113.036 120.01C113.036 117.16 113.726 114.58 115.046 112.66C116.576 110.44 118.586 109.66 120.176 109.66C121.766 109.66 123.776 110.44 125.306 112.66C126.626 114.58 127.316 117.16 127.316 120.01C127.316 122.86 126.626 125.44 125.306 127.36C123.776 129.58 121.766 130.36 120.176 130.36ZM120.176 111.7C119.156 111.7 117.776 112.24 116.726 113.92C115.646 115.63 115.256 117.91 115.256 120.01C115.256 122.11 115.646 124.39 116.726 126.1C117.776 127.78 119.156 128.32 120.176 128.32C121.196 128.32 122.576 127.78 123.626 126.1C124.706 124.39 125.096 122.11 125.096 120.01C125.096 117.91 124.706 115.63 123.626 113.92C122.576 112.24 121.196 111.7 120.176 111.7ZM137.227 130.36C135.637 130.36 133.627 129.58 132.097 127.36C130.777 125.44 130.087 122.86 130.087 120.01C130.087 117.16 130.777 114.58 132.097 112.66C133.627 110.44 135.637 109.66 137.227 109.66C138.817 109.66 140.827 110.44 142.357 112.66C143.677 114.58 144.367 117.16 144.367 120.01C144.367 122.86 143.677 125.44 142.357 127.36C140.827 129.58 138.817 130.36 137.227 130.36ZM137.227 111.7C136.207 111.7 134.827 112.24 133.777 113.92C132.697 115.63 132.307 117.91 132.307 120.01C132.307 122.11 132.697 124.39 133.777 126.1C134.827 127.78 136.207 128.32 137.227 128.32C138.247 128.32 139.627 127.78 140.677 126.1C141.757 124.39 142.147 122.11 142.147 120.01C142.147 117.91 141.757 115.63 140.677 113.92C139.627 112.24 138.247 111.7 137.227 111.7Z" fill="#C7E5F6"/>
<path d="M66.2086 148.5L64.4386 149.43C64.1386 148.71 63.5086 148.17 62.6986 148.17C61.9186 148.17 61.1986 148.62 61.1986 149.58C61.1986 150.48 61.7986 150.75 63.2086 151.35C65.0086 152.1 65.8486 152.67 66.3286 153.27C66.8686 153.93 66.9886 154.59 66.9886 155.28C66.9886 157.89 65.0986 159.36 62.6986 159.36C62.1886 159.36 59.3986 159.3 58.3486 156.18L60.2086 155.4C60.4486 156.06 61.1686 157.44 62.7286 157.44C64.1386 157.44 64.7686 156.39 64.7686 155.46C64.7686 154.29 63.9286 153.9 62.7586 153.39C61.2586 152.73 60.2986 152.25 59.7286 151.56C59.2486 150.96 59.1586 150.36 59.1586 149.73C59.1586 147.54 60.6886 146.25 62.7886 146.25C63.4486 146.25 65.2186 146.37 66.2086 148.5ZM79.0954 154.83L80.8954 155.82C80.5354 156.51 79.9954 157.26 79.3654 157.83C78.2254 158.85 76.8154 159.36 75.2254 159.36C72.2254 159.36 69.0754 157.47 69.0754 152.85C69.0754 149.13 71.3554 146.25 75.1054 146.25C77.5354 146.25 79.0654 147.45 79.8154 148.53C80.5954 149.64 81.0454 151.56 80.9854 153.21H71.2954C71.3254 155.79 73.0954 157.44 75.2554 157.44C76.2754 157.44 77.0854 157.14 77.8054 156.54C78.3754 156.06 78.8254 155.43 79.0954 154.83ZM71.4454 151.41H78.7654C78.4054 149.46 76.9354 148.17 75.1054 148.17C73.2754 148.17 71.7754 149.55 71.4454 151.41ZM84.2988 159V146.55H86.4588V147.99C86.8488 147.48 87.9588 146.25 90.0288 146.25C91.4988 146.25 92.8488 146.85 93.5988 147.96C94.2288 148.89 94.3188 149.91 94.3188 151.29V159H92.1588V151.35C92.1588 150.6 92.0988 149.73 91.5888 149.07C91.1688 148.53 90.5088 148.17 89.5488 148.17C88.7988 148.17 87.9888 148.38 87.3588 149.13C86.5188 150.12 86.4588 151.59 86.4588 152.49V159H84.2988ZM105.291 148.5L103.521 149.43C103.221 148.71 102.591 148.17 101.781 148.17C101.001 148.17 100.281 148.62 100.281 149.58C100.281 150.48 100.881 150.75 102.291 151.35C104.091 152.1 104.931 152.67 105.411 153.27C105.951 153.93 106.071 154.59 106.071 155.28C106.071 157.89 104.181 159.36 101.781 159.36C101.271 159.36 98.4806 159.3 97.4306 156.18L99.2906 155.4C99.5306 156.06 100.251 157.44 101.811 157.44C103.221 157.44 103.851 156.39 103.851 155.46C103.851 154.29 103.011 153.9 101.841 153.39C100.341 152.73 99.3806 152.25 98.8106 151.56C98.3306 150.96 98.2406 150.36 98.2406 149.73C98.2406 147.54 99.7706 146.25 101.871 146.25C102.531 146.25 104.301 146.37 105.291 148.5ZM114.757 159.36C110.977 159.36 108.157 156.6 108.157 152.82C108.157 149.04 110.947 146.25 114.757 146.25C118.567 146.25 121.357 149.04 121.357 152.82C121.357 156.6 118.537 159.36 114.757 159.36ZM114.757 148.17C112.477 148.17 110.377 149.79 110.377 152.82C110.377 155.88 112.537 157.44 114.757 157.44C117.007 157.44 119.137 155.85 119.137 152.82C119.137 149.76 117.037 148.17 114.757 148.17ZM124.67 159V146.55H126.83V147.9C127.04 147.57 127.97 146.25 129.65 146.25C130.31 146.25 131.03 146.49 131.57 146.76L130.55 148.71C130.07 148.38 129.62 148.29 129.29 148.29C128.42 148.29 127.88 148.65 127.55 149.07C127.19 149.55 126.83 150.39 126.83 152.43V159H124.67ZM140.125 148.5L138.355 149.43C138.055 148.71 137.425 148.17 136.615 148.17C135.835 148.17 135.115 148.62 135.115 149.58C135.115 150.48 135.715 150.75 137.125 151.35C138.925 152.1 139.765 152.67 140.245 153.27C140.785 153.93 140.905 154.59 140.905 155.28C140.905 157.89 139.015 159.36 136.615 159.36C136.105 159.36 133.315 159.3 132.265 156.18L134.125 155.4C134.365 156.06 135.085 157.44 136.645 157.44C138.055 157.44 138.685 156.39 138.685 155.46C138.685 154.29 137.845 153.9 136.675 153.39C135.175 152.73 134.215 152.25 133.645 151.56C133.165 150.96 133.075 150.36 133.075 149.73C133.075 147.54 134.605 146.25 136.705 146.25C137.365 146.25 139.135 146.37 140.125 148.5Z" fill="#C7E5F6"/>
<g filter="url(#filter4_d_37_59)">
<mask id="path-24-outside-5_37_59" maskUnits="userSpaceOnUse" x="79" y="27" width="36" height="50" fill="black">
<rect fill="white" x="79" y="27" width="36" height="50"/>
<path d="M112.39 28.31V34.89H97.97L95.66 42.66C96.36 42.59 97.13 42.52 97.83 42.52C101.75 42.52 105.74 43.85 108.61 46.65C110.85 48.82 113.16 52.53 113.16 58.62C113.16 63.73 111.55 67.86 108.4 71.01C104.69 74.65 100.21 75.77 95.45 75.77C92.72 75.77 89.5 75.42 86.49 73.67C85.79 73.25 83.13 71.64 80.96 68.28L86.35 63.8C86.49 64.15 87.75 66.46 89.92 67.86C91.46 68.91 93.63 69.47 96.01 69.47C99.79 69.47 101.96 68 103.15 66.88C104.55 65.48 106.16 62.96 106.16 58.97C106.16 55.12 104.83 52.81 103.36 51.41C101.05 49.24 97.97 48.82 95.73 48.82C93.7 48.82 92.16 49.1 90.27 49.8C88.8 50.36 87.47 50.99 86.14 51.9L93.07 28.31H112.39Z"/>
</mask>
<path d="M112.39 28.31V34.89H97.97L95.66 42.66C96.36 42.59 97.13 42.52 97.83 42.52C101.75 42.52 105.74 43.85 108.61 46.65C110.85 48.82 113.16 52.53 113.16 58.62C113.16 63.73 111.55 67.86 108.4 71.01C104.69 74.65 100.21 75.77 95.45 75.77C92.72 75.77 89.5 75.42 86.49 73.67C85.79 73.25 83.13 71.64 80.96 68.28L86.35 63.8C86.49 64.15 87.75 66.46 89.92 67.86C91.46 68.91 93.63 69.47 96.01 69.47C99.79 69.47 101.96 68 103.15 66.88C104.55 65.48 106.16 62.96 106.16 58.97C106.16 55.12 104.83 52.81 103.36 51.41C101.05 49.24 97.97 48.82 95.73 48.82C93.7 48.82 92.16 49.1 90.27 49.8C88.8 50.36 87.47 50.99 86.14 51.9L93.07 28.31H112.39Z" fill="#C7E5F6"/>
<path d="M112.39 28.31H113.39V27.31H112.39V28.31ZM112.39 34.89V35.89H113.39V34.89H112.39ZM97.97 34.89V33.89H97.224L97.0115 34.605L97.97 34.89ZM95.66 42.66L94.7015 42.375L94.2768 43.8033L95.7595 43.655L95.66 42.66ZM108.61 46.65L107.912 47.3658L107.914 47.3682L108.61 46.65ZM108.4 71.01L109.1 71.7238L109.107 71.7171L108.4 71.01ZM86.49 73.67L85.9755 74.5276L85.9874 74.5345L86.49 73.67ZM80.96 68.28L80.3208 67.511L79.6389 68.0777L80.12 68.8225L80.96 68.28ZM86.35 63.8L87.2785 63.4286L86.7679 62.1523L85.7108 63.031L86.35 63.8ZM89.92 67.86L90.4833 67.0338L90.4728 67.0266L90.4621 67.0197L89.92 67.86ZM103.15 66.88L103.835 67.6082L103.846 67.5978L103.857 67.5871L103.15 66.88ZM103.36 51.41L104.05 50.6858L104.045 50.6812L103.36 51.41ZM90.27 49.8L89.9227 48.8622L89.914 48.8655L90.27 49.8ZM86.14 51.9L85.1805 51.6181L84.3901 54.309L86.7047 52.7253L86.14 51.9ZM93.07 28.31V27.31H92.3215L92.1105 28.0281L93.07 28.31ZM112.39 28.31H111.39V34.89H112.39H113.39V28.31H112.39ZM112.39 34.89V33.89H97.97V34.89V35.89H112.39V34.89ZM97.97 34.89L97.0115 34.605L94.7015 42.375L95.66 42.66L96.6185 42.945L98.9285 35.175L97.97 34.89ZM95.66 42.66L95.7595 43.655C96.4611 43.5849 97.1857 43.52 97.83 43.52V42.52V41.52C97.0743 41.52 96.2589 41.5951 95.5605 41.665L95.66 42.66ZM97.83 42.52V43.52C101.538 43.52 105.261 44.7793 107.912 47.3658L108.61 46.65L109.308 45.9342C106.219 42.9207 101.962 41.52 97.83 41.52V42.52ZM108.61 46.65L107.914 47.3682C109.972 49.3619 112.16 52.8175 112.16 58.62H113.16H114.16C114.16 52.2425 111.728 48.2781 109.306 45.9318L108.61 46.65ZM113.16 58.62H112.16C112.16 63.5014 110.631 67.3649 107.693 70.3029L108.4 71.01L109.107 71.7171C112.469 68.3551 114.16 63.9585 114.16 58.62H113.16ZM108.4 71.01L107.7 70.2962C104.236 73.6945 100.045 74.77 95.45 74.77V75.77V76.77C100.375 76.77 105.144 75.6055 109.1 71.7238L108.4 71.01ZM95.45 75.77V74.77C92.7964 74.77 89.782 74.4272 86.9926 72.8055L86.49 73.67L85.9874 74.5345C89.218 76.4128 92.6436 76.77 95.45 76.77V75.77ZM86.49 73.67L87.0045 72.8125C86.3537 72.422 83.8473 70.9075 81.8 67.7375L80.96 68.28L80.12 68.8225C82.4127 72.3725 85.2263 74.078 85.9755 74.5275L86.49 73.67ZM80.96 68.28L81.5992 69.049L86.9892 64.569L86.35 63.8L85.7108 63.031L80.3208 67.511L80.96 68.28ZM86.35 63.8L85.4215 64.1714C85.5355 64.4564 85.9399 65.2003 86.5769 66.0404C87.2244 66.8944 88.1635 67.9168 89.3779 68.7003L89.92 67.86L90.4621 67.0197C89.5065 66.4032 88.7306 65.5706 88.1706 64.8321C87.8929 64.4658 87.6749 64.1314 87.5204 63.8726C87.4431 63.7432 87.3831 63.6349 87.3403 63.5533C87.2938 63.4646 87.2772 63.4253 87.2785 63.4286L86.35 63.8ZM89.92 67.86L89.3567 68.6862C91.1081 69.8804 93.4921 70.47 96.01 70.47V69.47V68.47C93.7679 68.47 91.8119 67.9396 90.4833 67.0338L89.92 67.86ZM96.01 69.47V70.47C100.091 70.47 102.497 68.8683 103.835 67.6082L103.15 66.88L102.465 66.1518C101.423 67.1317 99.489 68.47 96.01 68.47V69.47ZM103.15 66.88L103.857 67.5871C105.419 66.0251 107.16 63.2592 107.16 58.97H106.16H105.16C105.16 62.6608 103.681 64.9349 102.443 66.1729L103.15 66.88ZM106.16 58.97H107.16C107.16 54.8589 105.727 52.2831 104.05 50.6859L103.36 51.41L102.67 52.1341C103.933 53.3369 105.16 55.3811 105.16 58.97H106.16ZM103.36 51.41L104.045 50.6812C101.456 48.2491 98.0576 47.82 95.73 47.82V48.82V49.82C97.8824 49.82 100.644 50.2309 102.675 52.1388L103.36 51.41ZM95.73 48.82V47.82C93.5805 47.82 91.9229 48.1214 89.9227 48.8623L90.27 49.8L90.6173 50.7377C92.3971 50.0786 93.8195 49.82 95.73 49.82V48.82ZM90.27 49.8L89.914 48.8655C88.3952 49.4441 86.9891 50.1074 85.5753 51.0747L86.14 51.9L86.7047 52.7253C87.9509 51.8726 89.2048 51.2759 90.626 50.7345L90.27 49.8ZM86.14 51.9L87.0995 52.1819L94.0295 28.5919L93.07 28.31L92.1105 28.0281L85.1805 51.6181L86.14 51.9ZM93.07 28.31V29.31H112.39V28.31V27.31H93.07V28.31Z" fill="url(#paint9_linear_37_59)" mask="url(#path-24-outside-5_37_59)"/>
</g>
<defs>
<filter id="filter0_d_37_59" x="319.132" y="17.31" width="62.147" height="74.6843" filterUnits="userSpaceOnUse" color-interpolation-filters="sRGB">
<feFlood flood-opacity="0" result="BackgroundImageFix"/>
<feColorMatrix in="SourceAlpha" type="matrix" values="0 0 0 0 0 0 0 0 0 0 0 0 0 0 0 0 0 0 127 0" result="hardAlpha"/>
<feOffset dx="4" dy="3"/>
<feGaussianBlur stdDeviation="6"/>
<feComposite in2="hardAlpha" operator="out"/>
<feColorMatrix type="matrix" values="0 0 0 0 0.649602 0 0 0 0 0.91824 0 0 0 0 1 0 0 0 0.64 0"/>
<feBlend mode="normal" in2="BackgroundImageFix" result="effect1_dropShadow_37_59"/>
<feBlend mode="normal" in="SourceGraphic" in2="effect1_dropShadow_37_59" result="shape"/>
</filter>
<filter id="filter1_d_37_59" x="522.62" y="12.4431" width="149.464" height="82.1855" filterUnits="userSpaceOnUse" color-interpolation-filters="sRGB">
<feFlood flood-opacity="0" result="BackgroundImageFix"/>
<feColorMatrix in="SourceAlpha" type="matrix" values="0 0 0 0 0 0 0 0 0 0 0 0 0 0 0 0 0 0 127 0" result="hardAlpha"/>
<feOffset dx="4" dy="3"/>
<feGaussianBlur stdDeviation="6"/>
<feComposite in2="hardAlpha" operator="out"/>
<feColorMatrix type="matrix" values="0 0 0 0 0.649602 0 0 0 0 0.91824 0 0 0 0 1 0 0 0 0.64 0"/>
<feBlend mode="normal" in2="BackgroundImageFix" result="effect1_dropShadow_37_59"/>
<feBlend mode="normal" in="SourceGraphic" in2="effect1_dropShadow_37_59" result="shape"/>
</filter>
<filter id="filter2_d_37_59" x="745.639" y="18.31" width="182.213" height="73.46" filterUnits="userSpaceOnUse" color-interpolation-filters="sRGB">
<feFlood flood-opacity="0" result="BackgroundImageFix"/>
<feColorMatrix in="SourceAlpha" type="matrix" values="0 0 0 0 0 0 0 0 0 0 0 0 0 0 0 0 0 0 127 0" result="hardAlpha"/>
<feOffset dx="4" dy="3"/>
<feGaussianBlur stdDeviation="6"/>
<feComposite in2="hardAlpha" operator="out"/>
<feColorMatrix type="matrix" values="0 0 0 0 0.649602 0 0 0 0 0.91824 0 0 0 0 1 0 0 0 0.64 0"/>
<feBlend mode="normal" in2="BackgroundImageFix" result="effect1_dropShadow_37_59"/>
<feBlend mode="normal" in="SourceGraphic" in2="effect1_dropShadow_37_59" result="shape"/>
</filter>
<filter id="filter3_d_37_59" x="1035.44" y="12.7985" width="99.3066" height="94.2316" filterUnits="userSpaceOnUse" color-interpolation-filters="sRGB">
<feFlood flood-opacity="0" result="BackgroundImageFix"/>
<feColorMatrix in="SourceAlpha" type="matrix" values="0 0 0 0 0 0 0 0 0 0 0 0 0 0 0 0 0 0 127 0" result="hardAlpha"/>
<feOffset dx="4" dy="3"/>
<feGaussianBlur stdDeviation="6"/>
<feComposite in2="hardAlpha" operator="out"/>
<feColorMatrix type="matrix" values="0 0 0 0 0.649602 0 0 0 0 0.91824 0 0 0 0 1 0 0 0 0.64 0"/>
<feBlend mode="normal" in2="BackgroundImageFix" result="effect1_dropShadow_37_59"/>
<feBlend mode="normal" in="SourceGraphic" in2="effect1_dropShadow_37_59" result="shape"/>
</filter>
<filter id="filter4_d_37_59" x="71.6392" y="18.31" width="58.521" height="73.46" filterUnits="userSpaceOnUse" color-interpolation-filters="sRGB">
<feFlood flood-opacity="0" result="BackgroundImageFix"/>
<feColorMatrix in="SourceAlpha" type="matrix" values="0 0 0 0 0 0 0 0 0 0 0 0 0 0 0 0 0 0 127 0" result="hardAlpha"/>
<feOffset dx="4" dy="3"/>
<feGaussianBlur stdDeviation="6"/>
<feComposite in2="hardAlpha" operator="out"/>
<feColorMatrix type="matrix" values="0 0 0 0 0.649602 0 0 0 0 0.91824 0 0 0 0 1 0 0 0 0.64 0"/>
<feBlend mode="normal" in2="BackgroundImageFix" result="effect1_dropShadow_37_59"/>
<feBlend mode="normal" in="SourceGraphic" in2="effect1_dropShadow_37_59" result="shape"/>
</filter>
<linearGradient id="paint0_linear_37_59" x1="0" y1="90.5" x2="198.88" y2="90.5" gradientUnits="userSpaceOnUse">
<stop stop-color="#5784FF"/>
<stop offset="1" stop-color="#A6EAFF"/>
</linearGradient>
<linearGradient id="paint1_linear_37_59" x1="245" y1="90.5" x2="443.88" y2="90.5" gradientUnits="userSpaceOnUse">
<stop stop-color="#5784FF"/>
<stop offset="1" stop-color="#A6EAFF"/>
</linearGradient>
<linearGradient id="paint2_linear_37_59" x1="345.69" y1="21.1719" x2="365.709" y2="94.8072" gradientUnits="userSpaceOnUse">
<stop stop-color="#5784FF"/>
<stop offset="1" stop-color="#A6EAFF"/>
</linearGradient>
<linearGradient id="paint3_linear_37_59" x1="592.828" y1="22.1719" x2="599.157" y2="100.74" gradientUnits="userSpaceOnUse">
<stop stop-color="#5784FF"/>
<stop offset="1" stop-color="#A6EAFF"/>
</linearGradient>
<linearGradient id="paint4_linear_37_59" x1="837.31" y1="22.1719" x2="842.563" y2="100.9" gradientUnits="userSpaceOnUse">
<stop stop-color="#5784FF"/>
<stop offset="1" stop-color="#A6EAFF"/>
</linearGradient>
<linearGradient id="paint5_linear_37_59" x1="1082.28" y1="22.1719" x2="1093.65" y2="99.5782" gradientUnits="userSpaceOnUse">
<stop stop-color="#5784FF"/>
<stop offset="1" stop-color="#A6EAFF"/>
</linearGradient>
<linearGradient id="paint6_linear_37_59" x1="491" y1="90.5" x2="689.88" y2="90.5" gradientUnits="userSpaceOnUse">
<stop stop-color="#5784FF"/>
<stop offset="1" stop-color="#A6EAFF"/>
</linearGradient>
<linearGradient id="paint7_linear_37_59" x1="736" y1="90.5" x2="934.88" y2="90.5" gradientUnits="userSpaceOnUse">
<stop stop-color="#5784FF"/>
<stop offset="1" stop-color="#A6EAFF"/>
</linearGradient>
<linearGradient id="paint8_linear_37_59" x1="981" y1="90.5" x2="1179.88" y2="90.5" gradientUnits="userSpaceOnUse">
<stop stop-color="#5784FF"/>
<stop offset="1" stop-color="#A6EAFF"/>
</linearGradient>
<linearGradient id="paint9_linear_37_59" x1="99.6897" y1="22.1719" x2="119.709" y2="95.8072" gradientUnits="userSpaceOnUse">
<stop stop-color="#5784FF"/>
<stop offset="1" stop-color="#A6EAFF"/>
</linearGradient>
</defs>
</svg>
